<svg xmlns="http://www.w3.org/2000/svg" viewBox="0 0 100 100">
  <!-- Background Circle -->
  <circle cx="50" cy="50" r="48" fill="#0a192f" stroke="#64ffda" stroke-width="2"/>
  
  <!-- Owl Body -->
  <ellipse cx="50" cy="55" rx="25" ry="20" fill="#00bcd4" opacity="0.9"/>
  
  <!-- Owl Head -->
  <circle cx="50" cy="35" r="18" fill="#00bcd4"/>
  
  <!-- Ear Tufts -->
  <path d="M35 22 L32 12 L40 20 Z" fill="#00bcd4"/>
  <path d="M65 22 L68 12 L60 20 Z" fill="#00bcd4"/>
  
  <!-- Large Eyes -->
  <circle cx="43" cy="35" r="6" fill="#ffffff"/>
  <circle cx="57" cy="35" r="6" fill="#ffffff"/>
  <circle cx="45" cy="35" r="3" fill="#0a192f"/>
  <circle cx="55" cy="35" r="3" fill="#0a192f"/>
  
  <!-- Beak -->
  <path d="M47 42 L53 42 L50 47 Z" fill="#64ffda"/>
  
  <!-- Tech/Network Pattern on Chest -->
  <circle cx="50" cy="55" r="8" fill="none" stroke="#64ffda" stroke-width="2"/>
  <circle cx="50" cy="55" r="3" fill="#64ffda"/>
  <line x1="50" y1="47" x2="50" y2="52" stroke="#64ffda" stroke-width="2"/>
  <line x1="50" y1="58" x2="50" y2="63" stroke="#64ffda" stroke-width="2"/>
  
  <!-- Scan Waves (AI Detection Theme) -->
  <path d="M20 35 Q15 40 20 45" fill="none" stroke="#64ffda" stroke-width="2" opacity="0.6"/>
  <path d="M80 35 Q85 40 80 45" fill="none" stroke="#64ffda" stroke-width="2" opacity="0.6"/>
</svg>
